#!OML:ASF H:\Terrain\Walking\May29\JustinRory\Justin.ASF
:FULLY-SPECIFIED
:DEGREES
1354
root 13.146 17.7459 -3.52324 -184.503 -200.991 176.837
lowerback 7.55493 -2.20107 0.189037
upperback 2.13127 -2.81424 3.36508
thorax -1.86681 -1.40167 3.62309
lowerneck -11.6418 -6.57756 -12.1008
upperneck 9.14206 -7.89936 8.71845
head 5.49037 -3.73903 4.01677
rclavicle 2.26615e-014 -3.10104e-014
rhumerus -55.7311 -36.0631 -51.5291
rradius 19.021
rwrist -2.17413
rhand -23.3016 13.33
rfingers 7.12502
rthumb 3.15186 -16.6264
lclavicle 2.26615e-014 -3.10104e-014
lhumerus -68.2679 37.2849 37.9563
lradius 17.1266
lwrist -14.2511
lhand -4.13801 44.773
lfingers 7.12502
lthumb 21.6214 73.5858
rfemur -13.6574 0.210746 20.8087
rtibia 24.9564
rfoot -5.07721 -3.66823
rtoes 3.42175
lfemur -5.73942 -1.58162 -4.19814
ltibia 54.336
lfoot 6.68362 -13.2991
ltoes -4.8078
1355
root 13.179 17.7433 -3.55938 -184.231 -200.951 176.664
lowerback 7.26201 -2.27066 0.310239
upperback 1.91729 -2.89953 3.37972
thorax -1.92548 -1.44292 3.5696
lowerneck -11.8079 -6.34394 -12.017
upperneck 10.4704 -7.6586 8.78265
head 5.90766 -3.61617 4.04333
rclavicle 3.52843e-015 -1.90833e-014
rhumerus -56.009 -35.4474 -51.6836
rradius 19.2323
rwrist -2.54041
rhand -22.5834 13.7371
rfingers 7.12502
rthumb 3.84536 -16.208
lclavicle 3.52843e-015 -1.90833e-014
lhumerus -68.7165 36.5572 37.8058
lradius 17.3583
lwrist -12.7826
lhand -4.45703 44.8788
lfingers 7.12502
lthumb 21.315 73.7266
rfemur -14.0171 0.492957 20.8258
rtibia 24.803
rfoot -4.82574 -4.04322
rtoes 5.07311
lfemur -6.07242 -1.50816 -3.86154
ltibia 54.0092
lfoot 5.62478 -12.3694
ltoes -5.73404
1356
root 13.2211 17.7446 -3.58901 -184.225 -200.895 176.468
lowerback 6.95481 -2.24764 0.429893
upperback 1.96719 -2.86613 3.51549
thorax -1.70411 -1.42888 3.62395
lowerneck -12.1625 -6.28624 -12.122
upperneck 11.8791 -7.57834 8.65842
head 6.40335 -3.5875 4.02104
rclavicle -7.95139e-016 -2.38542e-014
rhumerus -55.9472 -34.94 -51.928
rradius 19.7767
rwrist -3.05929
rhand -21.9445 13.9062
rfingers 7.12502
rthumb 4.46237 -16.0267
lclavicle -7.95139e-016 -2.38542e-014
lhumerus -69.6944 36.9582 36.3691
lradius 17.3294
lwrist -13.1208
lhand -4.6605 44.5772
lfingers 7.12502
lthumb 21.1196 73.447
rfemur -14.0972 0.592303 20.8555
rtibia 24.7649
rfoot -4.8027 -4.14252
rtoes 5.18326
lfemur -6.00823 -1.44879 -3.54971
ltibia 53.5404
lfoot 6.14769 -11.2927
ltoes -1.02136
1357
root 13.2634 17.7477 -3.61895 -184.353 -200.961 176.526
lowerback 6.79569 -2.24772 0.288503
upperback 2.13291 -2.88252 3.61947
thorax -1.43111 -1.44096 3.80003
lowerneck -12.5085 -6.24156 -12.2112
upperneck 13.2674 -7.49309 8.408
head 6.89097 -3.56783 3.9582
rclavicle 1.44119e-014 -1.43125e-014
rhumerus -55.622 -34.6918 -52.0006
rradius 20.1005
rwrist -3.25705
rhand -21.3556 13.8455
rfingers 7.12502
rthumb 5.03104 -16.0748
lclavicle 1.44119e-014 -1.43125e-014
lhumerus -70.6094 37.7285 34.7013
lradius 17.1451
lwrist -13.9888
lhand -4.32641 44.9082
lfingers 7.12502
lthumb 21.4405 73.7418
rfemur -13.9511 0.417396 20.6153
rtibia 24.7173
rfoot -4.71985 -4.1464
rtoes 5.43133
lfemur -5.60038 -1.65126 -3.6286
ltibia 52.8823
lfoot 5.0393 -10.5718
ltoes -5.75915
1358
root 13.3069 17.7456 -3.65235 -184.175 -201.029 177.11
lowerback 6.65147 -2.2988 -0.232363
upperback 2.06328 -2.99173 3.44972
thorax -1.39821 -1.49648 3.91974
lowerneck -12.5246 -6.01339 -12.1834
upperneck 14.9632 -7.25438 8.30385
head 7.41139 -3.46914 3.95494
rclavicle -1.51573e-014 1.59028e-014
rhumerus -55.4152 -34.3959 -51.9606
rradius 19.868
rwrist -2.96394
rhand -20.9535 13.8491
rfingers 7.12502
rthumb 5.41926 -16.0616
lclavicle -1.51573e-014 1.59028e-014
lhumerus -71.954 38.3351 32.3058
lradius 16.8983
lwrist -15.2762
lhand -3.64968 45.0807
lfingers 7.12502
lthumb 22.0903 73.8388
rfemur -13.9301 0.331847 19.7945
rtibia 24.5699
rfoot -4.545 -4.17128
rtoes 6.01503
lfemur -5.28096 -1.80592 -4.29434
ltibia 52.0553
lfoot 5.54519 -9.4115
ltoes -5.25137
1359
root 13.3569 17.7454 -3.69289 -184.191 -200.907 177.394
lowerback 6.51612 -2.28947 -0.337366
upperback 2.09392 -2.993 3.29287
thorax -1.29455 -1.49864 3.80821
lowerneck -12.562 -5.80131 -12.1475
upperneck 16.7003 -7.04768 8.26555
head 7.96264 -3.38043 3.97401
rclavicle 3.07122e-014 1.19271e-014
rhumerus -55.0283 -34.1072 -52.1584
rradius 19.6224
rwrist -2.92773
rhand -20.548 13.8586
rfingers 7.12502
rthumb 5.81075 -16.0417
lclavicle 3.07122e-014 1.19271e-014
lhumerus -72.8885 38.8267 30.5431
lradius 16.9813
lwrist -16.3227
lhand -3.10131 45.3227
lfingers 7.12502
lthumb 22.6167 74.0176
rfemur -13.8411 0.435968 19.2777
rtibia 24.465
rfoot -4.3653 -4.13776
rtoes 4.47608
lfemur -4.76756 -1.87461 -4.69953
ltibia 51.0767
lfoot 4.48147 -8.69604
ltoes -9.44538
1360
root 13.3977 17.7519 -3.73469 -184.354 -200.576 176.945
lowerback 6.17177 -2.19486 0.103103
upperback 2.26805 -2.8484 3.39382
thorax -0.950136 -1.42998 3.63361
lowerneck -12.7 -5.74474 -11.9658
upperneck 18.1786 -6.99809 7.93351
head 8.45662 -3.38027 3.84865
rclavicle -2.50966e-014 2.70347e-014
rhumerus -54.4077 -34.0965 -52.3974
rradius 19.6589
rwrist -2.76261
rhand -19.7966 13.3489
rfingers 7.12502
rthumb 6.53618 -16.5302
lclavicle -2.50966e-014 2.70347e-014
lhumerus -72.6713 39.2499 30.4107
lradius 17.2569
lwrist -16.6516
lhand -3.30064 46.2137
lfingers 7.12502
lthumb 22.4254 74.9319
rfemur -13.9587 0.898598 19.5961
rtibia 24.477
rfoot -4.43377 -4.26377
rtoes 1.67395
lfemur -4.2815 -1.88284 -4.31236
ltibia 50.0178
lfoot 5.6002 -8.1606
ltoes -4.43008
1361
root 13.4339 17.7491 -3.78209 -184.332 -200.571 177.105
lowerback 5.96959 -2.1517 -0.0903196
upperback 2.4072 -2.81083 3.35436
thorax -0.689313 -1.41573 3.6859
lowerneck -12.9529 -5.76876 -11.8477
upperneck 19.868 -7.03151 7.5748
head 9.0644 -3.4261 3.71412
rclavicle -1.81888e-014 1.11319e-014
rhumerus -53.8946 -34.6154 -52.1367
rradius 19.5067
rwrist -1.74921
rhand -19.0914 12.8157
rfingers 7.12502
rthumb 7.21695 -17.0413
lclavicle -1.81888e-014 1.11319e-014
lhumerus -72.5101 40.1292 29.6346
lradius 16.9384
lwrist -17.7965
lhand -3.7931 46.9074
lfingers 7.12502
lthumb 21.9526 75.6818
rfemur -14.0268 1.0448 19.2393
rtibia 24.4278
rfoot -4.66408 -4.2164
rtoes -0.389864
lfemur -3.87701 -2.10667 -4.56268
ltibia 48.9484
lfoot 5.77939 -8.38825
ltoes -1.84911
1362
root 13.4733 17.7378 -3.84322 -184.264 -200.915 177.819
lowerback 6.06728 -2.2187 -0.68678
upperback 2.50145 -2.93798 3.12796
thorax -0.619866 -1.48398 3.79634
lowerneck -13.1656 -5.72894 -11.9165
upperneck 21.6983 -6.97854 7.39481
head 9.73347 -3.43196 3.68861
rclavicle 4.63665e-014 7.95139e-015
rhumerus -53.3374 -35.3222 -51.6934
rradius 18.8923
rwrist -0.702704
rhand -18.7563 13.4438
rfingers 7.12502
rthumb 7.54036 -16.4018
lclavicle 4.63665e-014 7.95139e-015
lhumerus -71.702 40.6713 29.6793
lradius 16.5178
lwrist -18.2496
lhand -3.5672 47.7023
lfingers 7.12502
lthumb 22.1695 76.4511
rfemur -13.9228 0.460249 18.2344
rtibia 24.3625
rfoot -4.72666 -3.86038
rtoes 0.337098
lfemur -3.48659 -2.63824 -5.47687
ltibia 47.9023
lfoot 5.93646 -9.08533
ltoes -0.470535
1363
root 13.5135 17.7235 -3.90426 -184.438 -200.999 177.59
lowerback 6.04103 -2.29703 -0.450014
upperback 2.58977 -3.03017 3.16314
thorax -0.518341 -1.53039 3.70126
lowerneck -13.1858 -5.60634 -11.754
upperneck 23.3125 -6.80125 6.94902
head 10.2735 -3.39506 3.54957
rclavicle -7.45443e-016 -1.43125e-014
rhumerus -52.5827 -35.5957 -51.7742
rradius 18.5907
rwrist -0.242867
rhand -18.5294 14.2955
rfingers 7.12502
rthumb 7.75935 -15.5421
lclavicle -7.45443e-016 -1.43125e-014
lhumerus -70.0283 40.5086 31.4898
lradius 16.6422
lwrist -17.3311
lhand -3.3279 48.9208
lfingers 7.12502
lthumb 22.3992 77.6421
rfemur -13.9722 0.267886 18.2453
rtibia 24.4871
rfoot -4.74595 -3.89941
rtoes 1.73483
lfemur -3.20514 -2.9467 -5.34782
ltibia 46.9169
lfoot 6.30084 -10.0109
ltoes -1.21286
